<svg version="1.1" viewBox="0.0 0.0 960.0 720.0" fill="none" stroke="none" stroke-linecap="square" stroke-miterlimit="10" xmlns:xlink="http://www.w3.org/1999/xlink" xmlns="http://www.w3.org/2000/svg"><clipPath id="p.0"><path d="m0 0l960.0 0l0 720.0l-960.0 0l0 -720.0z" clip-rule="nonzero"/></clipPath><g clip-path="url(#p.0)"><path fill="#000000" fill-opacity="0.0" d="m0 0l960.0 0l0 720.0l-960.0 0z" fill-rule="evenodd"/><path fill="#000000" fill-opacity="0.0" d="m480.00018 217.00519l0 130.34906l218.89764 0l0 130.34384" fill-rule="evenodd"/><path stroke="#c2c2c2" stroke-width="2.0" stroke-miterlimit="8.0" stroke-linecap="butt" d="m480.00018 217.00519l0 130.34906l218.89764 0l0 130.34384" fill-rule="evenodd"/><path fill="#000000" fill-opacity="0.0" d="m261.09955 477.70966l0 -130.34906l218.89764 0l0 -130.34386" fill-rule="evenodd"/><path stroke="#c2c2c2" stroke-width="2.0" stroke-miterlimit="8.0" stroke-linecap="butt" d="m261.09955 477.70966l0 -130.34906l218.89764 0l0 -130.34386" fill-rule="evenodd"/><path fill="#000000" fill-opacity="0.0" d="m280.8191 77.82408l398.36218 0l0 139.1811l-398.36218 0z" fill-rule="evenodd"/><path stroke="#a72a1e" stroke-width="2.0" stroke-linejoin="round" stroke-linecap="butt" d="m280.8191 77.82408l398.36218 0l0 139.1811l-398.36218 0z" fill-rule="evenodd"/><path fill="#a72a1e" d="m338.27853 155.04588l0 25.96875l-8.75 0l0 -66.34375l24.46875 0q10.890625 0 17.0625 5.5625q6.171875 5.546875 6.171875 14.703125q0 9.671875 -6.03125 14.890625q-6.03125 5.21875 -17.296875 5.21875l-15.625 0zm0 -7.15625l15.71875 0q7.015625 0 10.75 -3.296875q3.75 -3.3125 3.75 -9.5625q0 -5.921875 -3.75 -9.46875q-3.734375 -3.5625 -10.25 -3.703125l-16.21875 0l0 26.03125zm101.15817 2.09375q0 9.75 -3.28125 17.015625q-3.28125 7.265625 -9.296875 11.09375q-6.015625 3.828125 -14.03125 3.828125q-7.84375 0 -13.90625 -3.84375q-6.046875 -3.859375 -9.40625 -10.984375q-3.34375 -7.125 -3.4375 -16.515625l0 -4.78125q0 -9.578125 3.328125 -16.90625q3.328125 -7.34375 9.40625 -11.234375q6.09375 -3.90625 13.921875 -3.90625q7.984375 0 14.0625 3.859375q6.078125 3.84375 9.359375 11.15625q3.28125 7.3125 3.28125 17.03125l0 4.1875zm-8.703125 -4.28125q0 -11.8125 -4.734375 -18.125q-4.734375 -6.3125 -13.265625 -6.3125q-8.296875 0 -13.0625 6.3125q-4.75 6.3125 -4.890625 17.53125l0 4.875q0 11.4375 4.8125 17.984375q4.8125 6.53125 13.234375 6.53125q8.484375 0 13.125 -6.171875q4.65625 -6.171875 4.78125 -17.703125l0 -4.921875zm36.14746 14.390625l1.265625 8.75l1.875 -7.875l13.125 -46.296875l7.375 0l12.8125 46.296875l1.828125 8.015625l1.40625 -8.9375l10.296875 -45.375l8.796875 0l-16.09375 66.34375l-7.96875 0l-13.671875 -48.34375l-1.046875 -5.0625l-1.046875 5.0625l-14.171875 48.34375l-7.96875 0l-16.046875 -66.34375l8.75 0l10.484375 45.421875zm105.98889 -9.75l-28.75 0l0 23.515625l33.40625 0l0 7.15625l-42.15625 0l0 -66.34375l41.6875 0l0 7.1875l-32.9375 0l0 21.328125l28.75 0l0 7.15625zm39.87207 3.828125l-15.578125 0l0 26.84375l-8.796875 0l0 -66.34375l21.96875 0q11.203125 0 17.234375 5.109375q6.046875 5.09375 6.046875 14.84375q0 6.203125 -3.359375 10.8125q-3.34375 4.59375 -9.3125 6.875l15.59375 28.15625l0 0.546875l-9.390625 0l-14.40625 -26.84375zm-15.578125 -7.15625l13.4375 0q6.515625 0 10.359375 -3.359375q3.859375 -3.375 3.859375 -9.03125q0 -6.15625 -3.671875 -9.4375q-3.65625 -3.28125 -10.59375 -3.328125l-13.390625 0l0 25.15625z" fill-rule="nonzero"/><path fill="#000000" fill-opacity="0.0" d="m499.71973 477.70966l398.36218 0l0 139.18109l-398.36218 0z" fill-rule="evenodd"/><path stroke="#a72a1e" stroke-width="2.0" stroke-linejoin="round" stroke-linecap="butt" d="m499.71973 477.70966l398.36218 0l0 139.18109l-398.36218 0z" fill-rule="evenodd"/><path fill="#a72a1e" d="m724.32196 580.9002l-8.78125 0l-33.40625 -51.125l0 51.125l-8.796875 0l0 -66.34375l8.796875 0l33.484375 51.34375l0 -51.34375l8.703125 0l0 66.34375z" fill-rule="nonzero"/><path fill="#000000" fill-opacity="0.0" d="m61.918453 477.70966l398.3622 0l0 139.18109l-398.3622 0z" fill-rule="evenodd"/><path stroke="#a72a1e" stroke-width="2.0" stroke-linejoin="round" stroke-linecap="butt" d="m61.918453 477.70966l398.3622 0l0 139.18109l-398.3622 0z" fill-rule="evenodd"/><path fill="#a72a1e" d="m261.18713 539.97833l15.90625 -25.421875l10.296875 0l-20.953125 32.890625l21.453125 33.453125l-10.390625 0l-16.3125 -25.890625l-16.40625 25.890625l-10.34375 0l21.515625 -33.453125l-21.015625 -32.890625l10.265625 0l15.984375 25.421875z" fill-rule="nonzero"/></g></svg>