<svg version="1.1" viewBox="0.0 0.0 960.0 720.0" fill="none" stroke="none" stroke-linecap="square" stroke-miterlimit="10" xmlns:xlink="http://www.w3.org/1999/xlink" xmlns="http://www.w3.org/2000/svg"><clipPath id="p.0"><path d="m0 0l960.0 0l0 720.0l-960.0 0l0 -720.0z" clip-rule="nonzero"/></clipPath><g clip-path="url(#p.0)"><path fill="#000000" fill-opacity="0.0" d="m0 0l960.0 0l0 720.0l-960.0 0z" fill-rule="evenodd"/><path fill="#000000" fill-opacity="0.0" d="m374.95953 384.671l0 78.75748l132.25195 0l0 78.75433" fill-rule="evenodd"/><path stroke="#c2c2c2" stroke-width="2.0" stroke-miterlimit="8.0" stroke-linecap="butt" d="m374.95953 384.671l0 78.75748l132.25195 0l0 78.75433" fill-rule="evenodd"/><path fill="#000000" fill-opacity="0.0" d="m242.69838 542.18884l0 -78.75751l132.25197 0l0 -78.75433" fill-rule="evenodd"/><path stroke="#c2c2c2" stroke-width="2.0" stroke-miterlimit="8.0" stroke-linecap="butt" d="m242.69838 542.18884l0 -78.75751l132.25197 0l0 -78.75433" fill-rule="evenodd"/><path fill="#000000" fill-opacity="0.0" d="m254.61307 300.5765l240.6929 0l0 84.09448l-240.6929 0z" fill-rule="evenodd"/><path stroke="#a72a1e" stroke-width="2.0" stroke-linejoin="round" stroke-linecap="butt" d="m254.61307 300.5765l240.6929 0l0 84.09448l-240.6929 0z" fill-rule="evenodd"/><path fill="#a72a1e" d="m293.98398 346.98l0 14.84375l-5.0 0l0 -37.90625l13.984375 0q6.21875 0 9.734375 3.171875q3.53125 3.171875 3.53125 8.40625q0 5.515625 -3.453125 8.5q-3.4375 2.984375 -9.875 2.984375l-8.921875 0zm0 -4.09375l8.984375 0q4.0 0 6.140625 -1.875q2.140625 -1.890625 2.140625 -5.46875q0 -3.375 -2.140625 -5.40625q-2.140625 -2.03125 -5.859375 -2.109375l-9.265625 0l0 14.859375zm57.798798 1.203125q0 5.578125 -1.875 9.734375q-1.875 4.140625 -5.3125 6.328125q-3.4375 2.1875 -8.015625 2.1875q-4.484375 0 -7.953125 -2.1875q-3.453125 -2.203125 -5.375 -6.28125q-1.90625 -4.078125 -1.953125 -9.4375l0 -2.734375q0 -5.46875 1.890625 -9.65625q1.90625 -4.203125 5.375 -6.421875q3.484375 -2.234375 7.96875 -2.234375q4.546875 0 8.015625 2.203125q3.484375 2.203125 5.359375 6.390625q1.875 4.171875 1.875 9.71875l0 2.390625zm-4.96875 -2.453125q0 -6.734375 -2.71875 -10.34375q-2.703125 -3.609375 -7.5625 -3.609375q-4.75 0 -7.46875 3.609375q-2.71875 3.609375 -2.796875 10.015625l0 2.78125q0 6.53125 2.75 10.28125q2.75 3.734375 7.5625 3.734375q4.84375 0 7.5 -3.53125q2.65625 -3.53125 2.734375 -10.125l0 -2.8125zm20.64746 8.234375l0.734375 5.0l1.0625 -4.5l7.5 -26.453125l4.21875 0l7.3125 26.453125l1.046875 4.578125l0.796875 -5.109375l5.890625 -25.921875l5.03125 0l-9.203125 37.90625l-4.546875 0l-7.8125 -27.625l-0.59375 -2.890625l-0.609375 2.890625l-8.09375 27.625l-4.5625 0l-9.15625 -37.90625l5.0 0l5.984375 25.953125zm60.56308 -5.578125l-16.421875 0l0 13.4375l19.078125 0l0 4.09375l-24.078125 0l0 -37.90625l23.8125 0l0 4.109375l-18.8125 0l0 12.1875l16.421875 0l0 4.078125zm22.793915 2.1875l-8.90625 0l0 15.34375l-5.03125 0l0 -37.90625l12.546875 0q6.40625 0 9.859375 2.921875q3.453125 2.90625 3.453125 8.46875q0 3.546875 -1.921875 6.1875q-1.90625 2.625 -5.3125 3.921875l8.890625 16.09375l0 0.3125l-5.359375 0l-8.21875 -15.34375zm-8.90625 -4.078125l7.671875 0q3.734375 0 5.921875 -1.921875q2.203125 -1.9375 2.203125 -5.171875q0 -3.5 -2.09375 -5.375q-2.09375 -1.875 -6.046875 -1.90625l-7.65625 0l0 14.375z" fill-rule="nonzero"/><path fill="#000000" fill-opacity="0.0" d="m386.8742 542.18884l240.69293 0l0 84.09448l-240.69293 0z" fill-rule="evenodd"/><path stroke="#a72a1e" stroke-width="2.0" stroke-linejoin="round" stroke-linecap="butt" d="m386.8742 542.18884l240.69293 0l0 84.09448l-240.69293 0z" fill-rule="evenodd"/><path fill="#a72a1e" d="m455.0181 603.43604l-5.015625 0l-19.09375 -29.21875l0 29.21875l-5.015625 0l0 -37.90625l5.015625 0l19.140625 29.34375l0 -29.34375l4.96875 0l0 37.90625zm28.438995 3.9375l-23.84375 0l0 -3.9375l23.84375 0l0 3.9375zm32.388245 -15.96875q-0.703125 6.015625 -4.4374695 9.28125q-3.734375 3.265625 -9.921875 3.265625q-6.71875 0 -10.78125 -4.8125q-4.046875 -4.8125 -4.046875 -12.890625l0 -3.640625q0 -5.296875 1.890625 -9.296875q1.890625 -4.015625 5.34375 -6.15625q3.46875 -2.15625 8.03125 -2.15625q6.046875 0 9.6875 3.375q3.6405945 3.375 4.2343445 9.328125l-5.0155945 0q-0.65625 -4.515625 -2.828125 -6.546875q-2.171875 -2.03125 -6.078125 -2.03125q-4.796875 0 -7.515625 3.546875q-2.71875 3.53125 -2.71875 10.0625l0 3.671875q0 6.171875 2.578125 9.828125q2.578125 3.640625 7.21875 3.640625q4.15625 0 6.375 -1.890625q2.234375 -1.890625 2.96875 -6.578125l5.0155945 0zm35.991455 -5.703125q0 5.578125 -1.875 9.734375q-1.875 4.140625 -5.3125 6.328125q-3.4375 2.1875 -8.015625 2.1875q-4.484375 0 -7.953125 -2.1875q-3.453125 -2.203125 -5.375 -6.28125q-1.90625 -4.078125 -1.953125 -9.4375l0 -2.734375q0 -5.46875 1.890625 -9.65625q1.90625 -4.203125 5.375 -6.421875q3.484375 -2.234375 7.96875 -2.234375q4.546875 0 8.015625 2.203125q3.484375 2.203125 5.359375 6.390625q1.875 4.171875 1.875 9.71875l0 2.390625zm-4.96875 -2.453125q0 -6.734375 -2.71875 -10.34375q-2.703125 -3.609375 -7.5625 -3.609375q-4.75 0 -7.46875 3.609375q-2.71875 3.609375 -2.796875 10.015625l0 2.78125q0 6.53125 2.75 10.28125q2.75 3.734375 7.5625 3.734375q4.84375 0 7.5 -3.53125q2.65625 -3.53125 2.734375 -10.125l0 -2.8125zm41.600586 20.1875l-5.015625 0l-19.09375 -29.21875l0 29.21875l-5.015625 0l0 -37.90625l5.015625 0l19.140625 29.34375l0 -29.34375l4.96875 0l0 37.90625z" fill-rule="nonzero"/><path fill="#000000" fill-opacity="0.0" d="m122.35193 542.18884l240.6929 0l0 84.09448l-240.6929 0z" fill-rule="evenodd"/><path stroke="#a72a1e" stroke-width="2.0" stroke-linejoin="round" stroke-linecap="butt" d="m122.35193 542.18884l240.6929 0l0 84.09448l-240.6929 0z" fill-rule="evenodd"/><path fill="#a72a1e" d="m179.94052 580.0454l9.09375 -14.515625l5.875 0l-11.96875 18.796875l12.265625 19.109375l-5.9375 0l-9.328125 -14.796875l-9.375 14.796875l-5.90625 0l12.296875 -19.109375l-12.015625 -18.796875l5.859375 0l9.140625 14.515625zm40.621735 27.328125l-23.84375 0l0 -3.9375l23.84375 0l0 3.9375zm17.06015 -10.578125l10.828125 -31.265625l5.46875 0l-14.0625 37.90625l-4.421875 0l-14.03125 -37.90625l5.4375 0l10.78125 31.265625zm42.31961 -3.25l-15.890625 0l-3.5625 9.890625l-5.15625 0l14.46875 -37.90625l4.375 0l14.5 37.90625l-5.125 0l-3.609375 -9.890625zm-14.375 -4.125l12.890625 0l-6.46875 -17.71875l-6.421875 17.71875zm42.13202 -1.328125l-8.90625 0l0 15.34375l-5.03125 0l0 -37.90625l12.546875 0q6.40625 0 9.859375 2.921875q3.453125 2.90625 3.453125 8.46875q0 3.546875 -1.921875 6.1875q-1.90625 2.625 -5.3125 3.921875l8.890625 16.09375l0 0.3125l-5.359375 0l-8.21875 -15.34375zm-8.90625 -4.078125l7.671875 0q3.734375 0 5.921875 -1.921875q2.203125 -1.9375 2.203125 -5.171875q0 -3.5 -2.09375 -5.375q-2.09375 -1.875 -6.046875 -1.90625l-7.65625 0l0 14.375z" fill-rule="nonzero"/><path fill="#000000" fill-opacity="0.0" d="m422.19836 93.71824l240.69293 0l0 84.09449l-240.69293 0z" fill-rule="evenodd"/><path stroke="#a72a1e" stroke-width="2.0" stroke-linejoin="round" stroke-linecap="butt" d="m422.19836 93.71824l240.69293 0l0 84.09449l-240.69293 0z" fill-rule="evenodd"/><path fill="#a72a1e" d="m473.67697 154.96548l0 -37.906258l10.703125 0q4.9375 0 8.734375 2.1875q3.8125 2.1875 5.875 6.21875q2.078125 4.0312576 2.09375 9.265633l0 2.421875q0 5.359375 -2.078125 9.40625q-2.0625 4.03125 -5.90625 6.203125q-3.828125 2.15625 -8.9375 2.203125l-10.484375 0zm5.0 -33.796883l0 29.703133l5.25 0q5.78125 0 9.0 -3.59375q3.21875 -3.59375 3.21875 -10.234375l0 -2.203125q0 -6.46875 -3.03125 -10.046883q-3.03125 -3.578125 -8.609375 -3.625l-5.828125 0zm51.392426 16.265633l-16.421875 0l0 13.4375l19.078125 0l0 4.09375l-24.078125 0l0 -37.906258l23.8125 0l0 4.109375l-18.8125 0l0 12.187508l16.421875 0l0 4.078125zm22.793945 2.1875l-8.906311 0l0 15.34375l-5.03125 0l0 -37.906258l12.546936 0q6.40625 0 9.859375 2.921875q3.453125 2.90625 3.453125 8.468758q0 3.546875 -1.921875 6.1875q-1.90625 2.625 -5.3125 3.921875l8.890625 16.09375l0 0.3125l-5.359375 0l-8.21875 -15.34375zm-8.906311 -4.078125l7.671936 0q3.734375 0 5.921875 -1.921875q2.203125 -1.9375 2.203125 -5.171875q0 -3.5000076 -2.09375 -5.3750076q-2.09375 -1.875 -6.046875 -1.90625l-7.656311 0l0 14.375008zm33.194763 19.421875l-5.0 0l0 -37.906258l5.0 0l0 37.906258zm21.691284 -6.640625l10.828125 -31.265633l5.46875 0l-14.0625 37.906258l-4.421875 0l-14.03125 -37.906258l5.4375 0l10.78125 31.265633z" fill-rule="nonzero"/><path fill="#000000" fill-opacity="0.0" d="m542.5448 177.81273l0 61.38214l-167.59052 0l0 61.38951" fill-rule="evenodd"/><path stroke="#000000" stroke-width="1.0" stroke-linejoin="round" stroke-linecap="butt" d="m542.5448 177.81273l0 61.38214l-167.59052 0l0 61.38951" fill-rule="evenodd"/><path fill="#000000" fill-opacity="0.0" d="m542.5448 177.81273l0 61.38214l174.77167 0l0 61.38951" fill-rule="evenodd"/><path stroke="#000000" stroke-width="1.0" stroke-linejoin="round" stroke-linecap="butt" d="m542.5448 177.81273l0 61.38214l174.77167 0l0 61.38951" fill-rule="evenodd"/><path fill="#000000" fill-opacity="0.0" d="m596.9543 300.5765l240.69293 0l0 84.09448l-240.69293 0z" fill-rule="evenodd"/><path stroke="#a72a1e" stroke-width="2.0" stroke-linejoin="round" stroke-linecap="butt" d="m596.9543 300.5765l240.69293 0l0 84.09448l-240.69293 0z" fill-rule="evenodd"/><path fill="#a72a1e" d="m654.54285 338.43314l9.09375 -14.515625l5.875 0l-11.96875 18.796875l12.265625 19.109375l-5.9375 0l-9.328125 -14.796875l-9.375 14.796875l-5.90625 0l12.296875 -19.109375l-12.015625 -18.796875l5.859375 0l9.140625 14.515625zm40.621765 27.328094l-23.84375 0l0 -3.9374695l23.84375 0l0 3.9374695zm17.06012 -10.5780945l10.828125 -31.265625l5.46875 0l-14.0625 37.90625l-4.421875 0l-14.03125 -37.90625l5.4375 0l10.78125 31.265625zm42.31964 -3.25l-15.890625 0l-3.5625 9.890625l-5.15625 0l14.46875 -37.90625l4.375 0l14.5 37.90625l-5.125 0l-3.609375 -9.890625zm-14.375 -4.125l12.890625 0l-6.46875 -17.71875l-6.421875 17.71875zm42.13202 -1.328125l-8.90625 0l0 15.34375l-5.03125 0l0 -37.90625l12.546875 0q6.40625 0 9.859375 2.921875q3.453125 2.90625 3.453125 8.46875q0 3.546875 -1.921875 6.1875q-1.90625 2.625 -5.3125 3.921875l8.890625 16.09375l0 0.3125l-5.359375 0l-8.21875 -15.34375zm-8.90625 -4.078125l7.671875 0q3.734375 0 5.921875 -1.921875q2.203125 -1.9375 2.203125 -5.171875q0 -3.5 -2.09375 -5.375q-2.09375 -1.875 -6.046875 -1.90625l-7.65625 0l0 14.375z" fill-rule="nonzero"/></g></svg>