<svg version="1.1" viewBox="0.0 0.0 960.0 720.0" fill="none" stroke="none" stroke-linecap="square" stroke-miterlimit="10" xmlns:xlink="http://www.w3.org/1999/xlink" xmlns="http://www.w3.org/2000/svg"><clipPath id="p.0"><path d="m0 0l960.0 0l0 720.0l-960.0 0l0 -720.0z" clip-rule="nonzero"/></clipPath><g clip-path="url(#p.0)"><path fill="#000000" fill-opacity="0.0" d="m0 0l960.0 0l0 720.0l-960.0 0z" fill-rule="evenodd"/><path fill="#000000" fill-opacity="0.0" d="m414.74994 346.738l0 44.79831l279.62207 0l0 44.839508" fill-rule="evenodd"/><path stroke="#c2c2c2" stroke-width="2.0" stroke-miterlimit="8.0" stroke-linecap="butt" d="m414.74994 346.738l0 44.79831l279.62207 0l0 44.839508" fill-rule="evenodd"/><path fill="#000000" fill-opacity="0.0" d="m135.12337 436.36475l0 -44.79828l279.622 0l0 -44.839508" fill-rule="evenodd"/><path stroke="#c2c2c2" stroke-width="2.0" stroke-miterlimit="8.0" stroke-linecap="butt" d="m135.12337 436.36475l0 -44.79828l279.622 0l0 -44.839508" fill-rule="evenodd"/><path fill="#000000" fill-opacity="0.0" d="m694.3777 523.48285l0 54.718506l132.91339 0l0 54.698853" fill-rule="evenodd"/><path stroke="#c2c2c2" stroke-width="2.0" stroke-miterlimit="8.0" stroke-linecap="butt" d="m694.3777 523.48285l0 54.718506l132.91339 0l0 54.698853" fill-rule="evenodd"/><path fill="#000000" fill-opacity="0.0" d="m560.2553 632.8974l0 -54.718506l134.11023 0l0 -54.698853" fill-rule="evenodd"/><path stroke="#c2c2c2" stroke-width="2.0" stroke-miterlimit="8.0" stroke-linecap="butt" d="m560.2553 632.8974l0 -54.718506l134.11023 0l0 -54.698853" fill-rule="evenodd"/><path fill="#000000" fill-opacity="0.0" d="m293.08066 259.6199l243.3386 0l0 87.1181l-243.3386 0z" fill-rule="evenodd"/><path stroke="#a72a1e" stroke-width="2.0" stroke-linejoin="round" stroke-linecap="butt" d="m293.08066 259.6199l243.3386 0l0 87.1181l-243.3386 0z" fill-rule="evenodd"/><path fill="#a72a1e" d="m328.9355 289.14145l9.296875 23.203125l9.296875 -23.203125l4.875 0l0 28.4375l-3.75 0l0 -11.078125l0.34375 -11.953125l-9.328125 23.03125l-2.875 0l-9.3125 -22.96875l0.359375 11.890625l0 11.078125l-3.75 0l0 -28.4375l4.84375 0zm50.109375 0l0 19.328125q-0.03125 4.03125 -2.546875 6.59375q-2.5 2.5625 -6.796875 2.875l-1.0 0.03125q-4.65625 0 -7.4375 -2.515625q-2.765625 -2.53125 -2.8125 -6.9375l0 -19.375l3.71875 0l0 19.25q0 3.09375 1.6875 4.8125q1.703125 1.703125 4.84375 1.703125q3.1875 0 4.875 -1.703125q1.6875 -1.703125 1.6875 -4.78125l0 -19.28125l3.78125 0zm9.6875 25.375l13.46875 0l0 3.0625l-17.25 0l0 -28.4375l3.78125 0l0 25.375zm37.398438 -22.296875l-9.140625 0l0 25.359375l-3.734375 0l0 -25.359375l-9.125 0l0 -3.078125l22.0 0l0 3.078125zm8.2421875 25.359375l-3.75 0l0 -28.4375l3.75 0l0 28.4375zm10.597656 -11.140625l0 11.140625l-3.75 0l0 -28.4375l10.5 0q4.65625 0 7.296875 2.390625q2.65625 2.375 2.65625 6.296875q0 4.140625 -2.59375 6.375q-2.578125 2.234375 -7.40625 2.234375l-6.703125 0zm0 -3.0625l6.75 0q3.0 0 4.59375 -1.40625q1.609375 -1.421875 1.609375 -4.09375q0 -2.546875 -1.609375 -4.0625q-1.59375 -1.53125 -4.390625 -1.59375l-6.953125 0l0 11.15625zm25.265625 11.140625l13.46875 0l0 3.0625l-17.25 0l0 -28.4375l3.78125 0l0 25.375zm26.414062 -11.09375l7.421875 -14.28125l4.265625 0l-9.8125 17.828125l0 10.609375l-3.75 0l0 -10.609375l-9.796875 -17.828125l4.296875 0l7.375 14.28125z" fill-rule="nonzero"/><path fill="#000000" fill-opacity="0.0" d="m13.643044 436.36475l242.96062 0l0 87.1181l-242.96062 0z" fill-rule="evenodd"/><path stroke="#a72a1e" stroke-width="2.0" stroke-linejoin="round" stroke-linecap="butt" d="m13.643044 436.36475l242.96062 0l0 87.1181l-242.96062 0z" fill-rule="evenodd"/><path fill="#a72a1e" d="m131.5179 478.33942l2.703125 0q2.5625 -0.03125 4.03125 -1.34375q1.46875 -1.3125 1.46875 -3.53125q0 -5.0 -4.984375 -5.0q-2.34375 0 -3.75 1.34375q-1.390625 1.328125 -1.390625 3.53125l-3.6093826 0q0 -3.375 2.4687576 -5.609375q2.46875 -2.234375 6.28125 -2.234375q4.015625 0 6.296875 2.125q2.296875 2.125 2.296875 5.921875q0 1.859375 -1.203125 3.59375q-1.203125 1.734375 -3.265625 2.59375q2.34375 0.75 3.609375 2.46875q1.28125 1.71875 1.28125 4.1875q0 3.828125 -2.5 6.078125q-2.5 2.25 -6.5 2.25q-4.0 0 -6.515625 -2.171875q-2.5000076 -2.171875 -2.5000076 -5.71875l3.6250076 0q0 2.25 1.46875 3.59375q1.46875 1.34375 3.921875 1.34375q2.625 0 4.0 -1.359375q1.390625 -1.375 1.390625 -3.9375q0 -2.46875 -1.53125 -3.796875q-1.515625 -1.328125 -4.390625 -1.375l-2.703125 0l0 -2.953125z" fill-rule="nonzero"/><path fill="#000000" fill-opacity="0.0" d="m572.89734 436.36475l242.96063 0l0 87.1181l-242.96063 0z" fill-rule="evenodd"/><path stroke="#a72a1e" stroke-width="2.0" stroke-linejoin="round" stroke-linecap="butt" d="m572.89734 436.36475l242.96063 0l0 87.1181l-242.96063 0z" fill-rule="evenodd"/><path fill="#a72a1e" d="m633.6316 483.18317l0 11.140625l-3.75 0l0 -28.4375l10.5 0q4.65625 0 7.296875 2.390625q2.65625 2.375 2.65625 6.296875q0 4.140625 -2.59375 6.375q-2.578125 2.234375 -7.40625 2.234375l-6.703125 0zm0 -3.0625l6.75 0q3.0 0 4.59375 -1.40625q1.609375 -1.421875 1.609375 -4.09375q0 -2.546875 -1.609375 -4.0625q-1.59375 -1.53125 -4.390625 -1.59375l-6.953125 0l0 11.15625zm43.359375 0.90625q0 4.171875 -1.40625 7.296875q-1.40625 3.109375 -3.984375 4.75q-2.578125 1.640625 -6.015625 1.640625q-3.359375 0 -5.953125 -1.640625q-2.59375 -1.65625 -4.03125 -4.71875q-1.4375 -3.0625 -1.46875 -7.078125l0 -2.046875q0 -4.109375 1.421875 -7.25q1.421875 -3.140625 4.03125 -4.8125q2.609375 -1.671875 5.96875 -1.671875q3.421875 0 6.015625 1.65625q2.609375 1.640625 4.015625 4.78125q1.40625 3.125 1.40625 7.296875l0 1.796875zm-3.71875 -1.84375q0 -5.0625 -2.03125 -7.765625q-2.03125 -2.703125 -5.6875 -2.703125q-3.5625 0 -5.609375 2.703125q-2.03125 2.703125 -2.09375 7.515625l0 2.09375q0 4.890625 2.0625 7.703125q2.0625 2.796875 5.671875 2.796875q3.640625 0 5.625 -2.640625q2.0 -2.65625 2.0625 -7.59375l0 -2.109375zm15.484375 6.171875l0.546875 3.75l0.796875 -3.375l5.625 -19.84375l3.171875 0l5.484375 19.84375l0.78125 3.4375l0.609375 -3.828125l4.40625 -19.453125l3.765625 0l-6.890625 28.4375l-3.421875 0l-5.859375 -20.71875l-0.4375 -2.171875l-0.453125 2.171875l-6.078125 20.71875l-3.421875 0l-6.875 -28.4375l3.75 0l4.5 19.46875zm45.42578 -4.171875l-12.328125 0l0 10.078125l14.328125 0l0 3.0625l-18.078125 0l0 -28.4375l17.875 0l0 3.078125l-14.125 0l0 9.140625l12.328125 0l0 3.078125zm17.09375 1.640625l-6.6875 0l0 11.5l-3.765625 0l0 -28.4375l9.421875 0q4.796875 0 7.375 2.1875q2.59375 2.1875 2.59375 6.359375q0 2.65625 -1.4375 4.640625q-1.421875 1.96875 -3.984375 2.9375l6.671875 12.078125l0 0.234375l-4.015625 0l-6.171875 -11.5zm-6.6875 -3.078125l5.765625 0q2.796875 0 4.4375 -1.4375q1.65625 -1.453125 1.65625 -3.875q0 -2.625 -1.578125 -4.03125q-1.5625 -1.40625 -4.53125 -1.4375l-5.75 0l0 10.78125z" fill-rule="nonzero"/><path fill="#000000" fill-opacity="0.0" d="m705.79736 632.8974l242.96063 0l0 87.1181l-242.96063 0z" fill-rule="evenodd"/><path stroke="#a72a1e" stroke-width="2.0" stroke-linejoin="round" stroke-linecap="butt" d="m705.79736 632.8974l242.96063 0l0 87.1181l-242.96063 0z" fill-rule="evenodd"/><path fill="#a72a1e" d="m837.0472 690.85645l-18.640625 0l0 -2.59375l9.84375 -10.9375q2.1875 -2.484375 3.015625 -4.03125q0.84375 -1.5625 0.84375 -3.21875q0 -2.234375 -1.359375 -3.65625q-1.34375 -1.421875 -3.59375 -1.421875q-2.6875 0 -4.1875 1.53125q-1.484375 1.53125 -1.484375 4.265625l-3.625 0q0 -3.921875 2.53125 -6.34375q2.53125 -2.421875 6.765625 -2.421875q3.96875 0 6.265625 2.078125q2.3125 2.078125 2.3125 5.53125q0 4.203125 -5.34375 10.0l-7.625 8.265625l14.28125 0l0 2.953125z" fill-rule="nonzero"/><path fill="#000000" fill-opacity="0.0" d="m438.77496 632.8974l242.96063 0l0 87.1181l-242.96063 0z" fill-rule="evenodd"/><path stroke="#a72a1e" stroke-width="2.0" stroke-linejoin="round" stroke-linecap="butt" d="m438.77496 632.8974l242.96063 0l0 87.1181l-242.96063 0z" fill-rule="evenodd"/><path fill="#a72a1e" d="m513.185 673.3096l6.8125 -10.890625l4.421875 0l-8.984375 14.09375l9.203125 14.34375l-4.453125 0l-7.0 -11.09375l-7.0312805 11.09375l-4.4375 0l9.21875 -14.34375l-9.0 -14.09375l4.390625 0l6.8594055 10.890625zm30.46875 20.5l-17.890625 0l0 -2.953125l17.890625 0l0 2.953125zm12.796875 -7.9375l8.125 -23.453125l4.09375 0l-10.546875 28.4375l-3.3125 0l-10.53125 -28.4375l4.078125 0l8.09375 23.453125zm31.730469 -2.4375l-11.90625 0l-2.671875 7.421875l-3.875 0l10.859375 -28.4375l3.28125 0l10.875 28.4375l-3.84375 0l-2.71875 -7.421875zm-10.78125 -3.09375l9.671875 0l-4.84375 -13.296875l-4.828125 13.296875zm31.609375 -0.984375l-6.6875 0l0 11.5l-3.765625 0l0 -28.4375l9.421875 0q4.796875 0 7.375 2.1875q2.59375 2.1875 2.59375 6.359375q0 2.65625 -1.4375 4.640625q-1.421875 1.96875 -3.984375 2.9375l6.671875 12.078125l0 0.234375l-4.015625 0l-6.171875 -11.5zm-6.6875 -3.078125l5.765625 0q2.796875 0 4.4375 -1.4375q1.65625 -1.453125 1.65625 -3.875q0 -2.625 -1.578125 -4.03125q-1.5625 -1.40625 -4.53125 -1.4375l-5.75 0l0 10.78125z" fill-rule="nonzero"/><path fill="#000000" fill-opacity="0.0" d="m496.4239 0.0025669292l243.33856 0l0 87.11811l-243.33856 0z" fill-rule="evenodd"/><path stroke="#a72a1e" stroke-width="2.0" stroke-linejoin="round" stroke-linecap="butt" d="m496.4239 0.0025669292l243.33856 0l0 87.11811l-243.33856 0z" fill-rule="evenodd"/><path fill="#a72a1e" d="m566.4291 57.96162l0 -28.4375l8.03125 0q3.71875 0 6.5625 1.640625q2.859375 1.640625 4.40625 4.671875q1.546875 3.015625 1.578125 6.953125l0 1.8125q0 4.015625 -1.5625 7.046875q-1.546875 3.03125 -4.4375 4.65625q-2.875 1.609375 -6.703125 1.65625l-7.875 0zm3.75 -25.359375l0 22.296875l3.953125 0q4.328125 0 6.734375 -2.6875q2.421875 -2.703125 2.421875 -7.6875l0 -1.65625q0 -4.84375 -2.28125 -7.53125q-2.265625 -2.6875 -6.453125 -2.734375l-4.375 0zm38.558594 12.21875l-12.328125 0l0 10.078125l14.328125 0l0 3.0625l-18.078125 0l0 -28.4375l17.875 0l0 3.078125l-14.125 0l0 9.140625l12.328125 0l0 3.078125zm17.09375 1.640625l-6.6875 0l0 11.5l-3.765625 0l0 -28.4375l9.421875 0q4.796875 0 7.375 2.1875q2.59375 2.1875 2.59375 6.359375q0 2.65625 -1.4375 4.640625q-1.421875 1.96875 -3.984375 2.9375l6.671875 12.078125l0 0.234375l-4.015625 0l-6.171875 -11.5zm-6.6875 -3.078125l5.765625 0q2.796875 0 4.4375 -1.4375q1.65625 -1.453125 1.65625 -3.875q0 -2.625 -1.578125 -4.03125q-1.5625 -1.40625 -4.53125 -1.4375l-5.75 0l0 10.78125zm24.910156 14.578125l-3.75 0l0 -28.4375l3.75 0l0 28.4375zm16.269531 -4.984375l8.125 -23.453125l4.09375 0l-10.546875 28.4375l-3.3125 0l-10.53125 -28.4375l4.078125 0l8.09375 23.453125z" fill-rule="nonzero"/><path fill="#000000" fill-opacity="0.0" d="m705.61743 259.6199l243.33856 0l0 87.1181l-243.33856 0z" fill-rule="evenodd"/><path stroke="#a72a1e" stroke-width="2.0" stroke-linejoin="round" stroke-linecap="butt" d="m705.61743 259.6199l243.33856 0l0 87.1181l-243.33856 0z" fill-rule="evenodd"/><path fill="#a72a1e" d="m780.21643 300.03207l6.8125 -10.890625l4.421875 0l-8.984375 14.09375l9.203125 14.34375l-4.453125 0l-7.0 -11.09375l-7.03125 11.09375l-4.4375 0l9.21875 -14.34375l-9.0 -14.09375l4.390625 0l6.859375 10.890625zm30.46875 20.5l-17.890625 0l0 -2.953125l17.890625 0l0 2.953125zm12.796875 -7.9375l8.125 -23.453125l4.093689 0l-10.546814 28.4375l-3.3125 0l-10.53125 -28.4375l4.078125 0l8.09375 23.453125zm31.730408 -2.4375l-11.90625 0l-2.671875 7.421875l-3.875 0l10.859375 -28.4375l3.28125 0l10.875 28.4375l-3.84375 0l-2.71875 -7.421875zm-10.78125 -3.09375l9.671875 0l-4.84375 -13.296875l-4.828125 13.296875zm31.609375 -0.984375l-6.6875 0l0 11.5l-3.765625 0l0 -28.4375l9.421875 0q4.796875 0 7.375 2.1875q2.59375 2.1875 2.59375 6.359375q0 2.65625 -1.4375 4.640625q-1.421875 1.96875 -3.984375 2.9375l6.671875 12.078125l0 0.234375l-4.015625 0l-6.171875 -11.5zm-6.6875 -3.078125l5.765625 0q2.796875 0 4.4375 -1.4375q1.65625 -1.453125 1.65625 -3.875q0 -2.625 -1.578125 -4.03125q-1.5625 -1.40625 -4.53125 -1.4375l-5.75 0l0 10.78125z" fill-rule="nonzero"/><path fill="#000000" fill-opacity="0.0" d="m618.09314 87.120674l0 86.24853l-203.33856 0l0 86.2554" fill-rule="evenodd"/><path stroke="#000000" stroke-width="1.0" stroke-linejoin="round" stroke-linecap="butt" d="m618.09314 87.120674l0 86.24853l-203.33856 0l0 86.2554" fill-rule="evenodd"/><path fill="#000000" fill-opacity="0.0" d="m618.09314 87.120674l0 86.24853l209.1969 0l0 86.2554" fill-rule="evenodd"/><path stroke="#000000" stroke-width="1.0" stroke-linejoin="round" stroke-linecap="butt" d="m618.09314 87.120674l0 86.24853l209.1969 0l0 86.2554" fill-rule="evenodd"/></g></svg>