<svg version="1.1" viewBox="0.0 0.0 960.0 720.0" fill="none" stroke="none" stroke-linecap="square" stroke-miterlimit="10" xmlns:xlink="http://www.w3.org/1999/xlink" xmlns="http://www.w3.org/2000/svg"><clipPath id="p.0"><path d="m0 0l960.0 0l0 720.0l-960.0 0l0 -720.0z" clip-rule="nonzero"/></clipPath><g clip-path="url(#p.0)"><path fill="#000000" fill-opacity="0.0" d="m0 0l960.0 0l0 720.0l-960.0 0z" fill-rule="evenodd"/><path fill="#000000" fill-opacity="0.0" d="m431.57922 290.95398l0 32.59915l203.4646 0l0 32.62918" fill-rule="evenodd"/><path stroke="#c2c2c2" stroke-width="2.0" stroke-miterlimit="8.0" stroke-linecap="butt" d="m431.57922 290.95398l0 32.59915l203.4646 0l0 32.62918" fill-rule="evenodd"/><path fill="#000000" fill-opacity="0.0" d="m228.13518 356.18338l0 -32.59915l203.43306 0l0 -32.62918" fill-rule="evenodd"/><path stroke="#c2c2c2" stroke-width="2.0" stroke-miterlimit="8.0" stroke-linecap="butt" d="m228.13518 356.18338l0 -32.59915l203.43306 0l0 -32.62918" fill-rule="evenodd"/><path fill="#000000" fill-opacity="0.0" d="m635.0471 419.55347l0 39.818207l96.69293 0l0 39.803833" fill-rule="evenodd"/><path stroke="#c2c2c2" stroke-width="2.0" stroke-miterlimit="8.0" stroke-linecap="butt" d="m635.0471 419.55347l0 39.818207l96.69293 0l0 39.803833" fill-rule="evenodd"/><path fill="#000000" fill-opacity="0.0" d="m537.46 499.18048l0 -39.818176l97.57483 0l0 -39.803864" fill-rule="evenodd"/><path stroke="#c2c2c2" stroke-width="2.0" stroke-miterlimit="8.0" stroke-linecap="butt" d="m537.46 499.18048l0 -39.818176l97.57483 0l0 -39.803864" fill-rule="evenodd"/><path fill="#000000" fill-opacity="0.0" d="m427.34268 617.94336l0 -27.705261l304.40945 0l0 -27.69635" fill-rule="evenodd"/><path stroke="#c2c2c2" stroke-width="2.0" stroke-miterlimit="8.0" stroke-linecap="butt" d="m427.34268 617.94336l0 -27.705261l304.40945 0l0 -27.69635" fill-rule="evenodd"/><path fill="#000000" fill-opacity="0.0" d="m621.62744 617.94336l0 -27.705261l110.11023 0l0 -27.69635" fill-rule="evenodd"/><path stroke="#c2c2c2" stroke-width="2.0" stroke-miterlimit="8.0" stroke-linecap="butt" d="m621.62744 617.94336l0 -27.705261l110.11023 0l0 -27.69635" fill-rule="evenodd"/><path fill="#000000" fill-opacity="0.0" d="m343.05954 227.5839l177.0394 0l0 63.370087l-177.0394 0z" fill-rule="evenodd"/><path stroke="#a72a1e" stroke-width="2.0" stroke-linejoin="round" stroke-linecap="butt" d="m343.05954 227.5839l177.0394 0l0 63.370087l-177.0394 0z" fill-rule="evenodd"/><path fill="#a72a1e" d="m362.9308 248.23894l7.4375 18.562485l7.4375 -18.562485l3.890625 0l0 22.749985l-3.0 0l0 -8.859375l0.28125 -9.562485l-7.46875 18.42186l-2.296875 0l-7.453125 -18.374985l0.296875 9.51561l0 8.859375l-3.0 0l0 -22.749985l3.875 0zm40.078125 0l0 15.468735q-0.015625 3.21875 -2.03125 5.265625q-2.0 2.046875 -5.4375 2.296875l-0.796875 0.03125q-3.734375 0 -5.953125 -2.015625q-2.21875 -2.015625 -2.25 -5.546875l0 -15.499985l2.96875 0l0 15.406235q0 2.46875 1.359375 3.84375q1.359375 1.359375 3.875 1.359375q2.546875 0 3.890625 -1.359375q1.359375 -1.359375 1.359375 -3.828125l0 -15.42186l3.015625 0zm7.75 20.29686l10.78125 0l0 2.453125l-13.796875 0l0 -22.749985l3.015625 0l0 20.29686zm29.921875 -17.82811l-7.3125 0l0 20.281235l-2.984375 0l0 -20.281235l-7.296875 0l0 -2.46875l17.59375 0l0 2.46875zm6.59375 20.281235l-3.0 0l0 -22.749985l3.0 0l0 22.749985zm8.484375 -8.90625l0 8.90625l-3.0 0l0 -22.749985l8.390625 0q3.734375 0 5.84375 1.90625q2.125 1.90625 2.125 5.046875q0 3.3124847 -2.078125 5.1093597q-2.0625 1.78125 -5.921875 1.78125l-5.359375 0zm0 -2.453125l5.390625 0q2.40625 0 3.6875 -1.125q1.28125 -1.140625 1.28125 -3.2812347q0 -2.03125 -1.28125 -3.25q-1.28125 -1.21875 -3.515625 -1.265625l-5.5625 0l0 8.92186zm20.203125 8.90625l10.78125 0l0 2.453125l-13.796875 0l0 -22.749985l3.015625 0l0 20.29686zm21.140625 -8.875l5.9375 -11.42186l3.40625 0l-7.84375 14.26561l0 8.484375l-3.0 0l0 -8.484375l-7.84375 -14.26561l3.4375 0l5.90625 11.42186z" fill-rule="nonzero"/><path fill="#000000" fill-opacity="0.0" d="m139.74147 356.18338l176.7874 0l0 63.370087l-176.7874 0z" fill-rule="evenodd"/><path stroke="#a72a1e" stroke-width="2.0" stroke-linejoin="round" stroke-linecap="butt" d="m139.74147 356.18338l176.7874 0l0 63.370087l-176.7874 0z" fill-rule="evenodd"/><path fill="#a72a1e" d="m187.32266 399.58844l-3.015625 0l-11.453125 -17.53125l0 17.53125l-3.015625 0l0 -22.75l3.015625 0l11.484375 17.609375l0 -17.609375l2.984375 0l0 22.75zm17.0625 2.359375l-14.3125 0l0 -2.359375l14.3125 0l0 2.359375zm19.4375 -9.578125q-0.421875 3.609375 -2.671875 5.578125q-2.234375 1.953125 -5.953125 1.953125q-4.03125 0 -6.46875 -2.890625q-2.421875 -2.890625 -2.421875 -7.734375l0 -2.1875q0 -3.171875 1.125 -5.578125q1.140625 -2.40625 3.21875 -3.6875q2.078125 -1.296875 4.8125 -1.296875q3.625 0 5.8125 2.03125q2.1875 2.015625 2.546875 5.59375l-3.015625 0q-0.390625 -2.71875 -1.703125 -3.9375q-1.296875 -1.21875 -3.640625 -1.21875q-2.875 0 -4.515625 2.125q-1.625 2.125 -1.625 6.046875l0 2.203125q0 3.703125 1.546875 5.890625q1.546875 2.1875 4.328125 2.1875q2.5 0 3.828125 -1.125q1.34375 -1.140625 1.78125 -3.953125l3.015625 0zm21.59375 -3.421875q0 3.34375 -1.125 5.84375q-1.125 2.484375 -3.1875 3.796875q-2.0625 1.3125 -4.8125 1.3125q-2.6875 0 -4.765625 -1.3125q-2.078125 -1.328125 -3.234375 -3.765625q-1.140625 -2.453125 -1.171875 -5.671875l0 -1.640625q0 -3.28125 1.140625 -5.796875q1.140625 -2.515625 3.21875 -3.84375q2.09375 -1.34375 4.78125 -1.34375q2.734375 0 4.8125 1.328125q2.09375 1.3125 3.21875 3.828125q1.125 2.5 1.125 5.828125l0 1.4375zm-2.984375 -1.46875q0 -4.046875 -1.625 -6.203125q-1.625 -2.171875 -4.546875 -2.171875q-2.84375 0 -4.484375 2.171875q-1.625 2.15625 -1.671875 6.0l0 1.671875q0 3.921875 1.640625 6.171875q1.65625 2.234375 4.546875 2.234375q2.90625 0 4.5 -2.109375q1.59375 -2.125 1.640625 -6.078125l0 -1.6875zm24.96875 12.109375l-3.015625 0l-11.453125 -17.53125l0 17.53125l-3.015625 0l0 -22.75l3.015625 0l11.484375 17.609375l0 -17.609375l2.984375 0l0 22.75zm12.03125 -10.140625q-3.859375 -1.109375 -5.625 -2.71875q-1.75 -1.625 -1.75 -4.0q0 -2.6875 2.140625 -4.4375q2.15625 -1.765625 5.59375 -1.765625q2.34375 0 4.171875 0.90625q1.84375 0.90625 2.84375 2.5q1.015625 1.59375 1.015625 3.484375l-3.015625 0q0 -2.0625 -1.3125 -3.234375q-1.3125 -1.1875 -3.703125 -1.1875q-2.21875 0 -3.46875 0.984375q-1.234375 0.96875 -1.234375 2.703125q0 1.390625 1.171875 2.359375q1.1875 0.953125 4.015625 1.75q2.84375 0.796875 4.4375 1.765625q1.609375 0.953125 2.375 2.234375q0.78125 1.28125 0.78125 3.015625q0 2.765625 -2.15625 4.4375q-2.15625 1.65625 -5.765625 1.65625q-2.34375 0 -4.375 -0.890625q-2.03125 -0.90625 -3.140625 -2.46875q-1.09375 -1.5625 -1.09375 -3.546875l3.015625 0q0 2.0625 1.515625 3.265625q1.53125 1.1875 4.078125 1.1875q2.375 0 3.640625 -0.96875q1.265625 -0.96875 1.265625 -2.640625q0 -1.671875 -1.171875 -2.578125q-1.171875 -0.921875 -4.25 -1.8125z" fill-rule="nonzero"/><path fill="#000000" fill-opacity="0.0" d="m546.65344 356.18338l176.78741 0l0 63.370087l-176.78741 0z" fill-rule="evenodd"/><path stroke="#a72a1e" stroke-width="2.0" stroke-linejoin="round" stroke-linecap="butt" d="m546.65344 356.18338l176.78741 0l0 63.370087l-176.78741 0z" fill-rule="evenodd"/><path fill="#a72a1e" d="m586.45337 390.6822l0 8.90625l-3.0 0l0 -22.75l8.390625 0q3.734375 0 5.84375 1.90625q2.125 1.90625 2.125 5.046875q0 3.3125 -2.078125 5.109375q-2.0625 1.78125 -5.921875 1.78125l-5.359375 0zm0 -2.453125l5.390625 0q2.40625 0 3.6875 -1.125q1.28125 -1.140625 1.28125 -3.28125q0 -2.03125 -1.28125 -3.25q-1.28125 -1.21875 -3.515625 -1.265625l-5.5625 0l0 8.921875zm34.6875 0.71875q0 3.34375 -1.125 5.84375q-1.125 2.484375 -3.1875 3.796875q-2.0625 1.3125 -4.8125 1.3125q-2.6875 0 -4.765625 -1.3125q-2.078125 -1.328125 -3.234375 -3.765625q-1.140625 -2.453125 -1.171875 -5.671875l0 -1.640625q0 -3.28125 1.140625 -5.796875q1.140625 -2.515625 3.21875 -3.84375q2.09375 -1.34375 4.78125 -1.34375q2.734375 0 4.8125 1.328125q2.09375 1.3125 3.21875 3.828125q1.125 2.5 1.125 5.828125l0 1.4375zm-2.984375 -1.46875q0 -4.046875 -1.625 -6.203125q-1.625 -2.171875 -4.546875 -2.171875q-2.84375 0 -4.484375 2.171875q-1.625 2.15625 -1.671875 6.0l0 1.671875q0 3.921875 1.640625 6.171875q1.65625 2.234375 4.546875 2.234375q2.90625 0 4.5 -2.109375q1.59375 -2.125 1.640625 -6.078125l0 -1.6875zm12.390625 4.9375l0.4375 3.0l0.640625 -2.703125l4.5 -15.875l2.53125 0l4.390625 15.875l0.625 2.75l0.484375 -3.0625l3.53125 -15.5625l3.015625 0l-5.515625 22.75l-2.734375 0l-4.6875 -16.578125l-0.359375 -1.734375l-0.359375 1.734375l-4.859375 16.578125l-2.734375 0l-5.5 -22.75l3.0 0l3.59375 15.578125zm36.34375 -3.34375l-9.859375 0l0 8.0625l11.453125 0l0 2.453125l-14.453125 0l0 -22.75l14.296875 0l0 2.46875l-11.296875 0l0 7.3125l9.859375 0l0 2.453125zm13.671875 1.3125l-5.34375 0l0 9.203125l-3.015625 0l0 -22.75l7.53125 0q3.84375 0 5.90625 1.75q2.078125 1.75 2.078125 5.09375q0 2.125 -1.15625 3.703125q-1.140625 1.578125 -3.1875 2.359375l5.34375 9.65625l0 0.1875l-3.21875 0l-4.9375 -9.203125zm-5.34375 -2.453125l4.609375 0q2.234375 0 3.546875 -1.15625q1.328125 -1.15625 1.328125 -3.09375q0 -2.109375 -1.265625 -3.234375q-1.25 -1.125 -3.625 -1.140625l-4.59375 0l0 8.625z" fill-rule="nonzero"/><path fill="#000000" fill-opacity="0.0" d="m643.35114 499.18048l176.78735 0l0 63.370117l-176.78735 0z" fill-rule="evenodd"/><path stroke="#a72a1e" stroke-width="2.0" stroke-linejoin="round" stroke-linecap="butt" d="m643.35114 499.18048l176.78735 0l0 63.370117l-176.78735 0z" fill-rule="evenodd"/><path fill="#a72a1e" d="m688.6667 519.8355l7.4375 18.5625l7.4375 -18.5625l3.890625 0l0 22.75l-3.0 0l0 -8.859375l0.28125 -9.5625l-7.46875 18.421875l-2.296875 0l-7.453125 -18.375l0.296875 9.515625l0 8.859375l-3.0 0l0 -22.75l3.875 0zm27.28125 22.75l-3.0 0l0 -22.75l3.0 0l0 22.75zm22.96875 0l-3.015625 0l-11.453125 -17.53125l0 17.53125l-3.015625 0l0 -22.75l3.015625 0l11.484375 17.609375l0 -17.609375l2.984375 0l0 22.75zm21.34375 -22.75l0 15.46875q-0.015625 3.21875 -2.03125 5.265625q-2.0 2.046875 -5.4375 2.296875l-0.796875 0.03125q-3.734375 0 -5.953125 -2.015625q-2.21875 -2.015625 -2.25 -5.546875l0 -15.5l2.96875 0l0 15.40625q0 2.46875 1.359375 3.84375q1.359375 1.359375 3.875 1.359375q2.546875 0 3.890625 -1.359375q1.359375 -1.359375 1.359375 -3.828125l0 -15.421875l3.015625 0zm11.4375 12.609375q-3.859375 -1.109375 -5.625 -2.71875q-1.75 -1.625 -1.75 -4.0q0 -2.6875 2.140625 -4.4375q2.15625 -1.765625 5.59375 -1.765625q2.34375 0 4.171875 0.90625q1.84375 0.90625 2.84375 2.5q1.015625 1.59375 1.015625 3.484375l-3.015625 0q0 -2.0625 -1.3125 -3.234375q-1.3125 -1.1875 -3.703125 -1.1875q-2.21875 0 -3.46875 0.984375q-1.234375 0.96875 -1.234375 2.703125q0 1.390625 1.171875 2.359375q1.1875 0.953125 4.015625 1.75q2.84375 0.796875 4.4375 1.765625q1.609375 0.953125 2.375 2.234375q0.78125 1.28125 0.78125 3.015625q0 2.765625 -2.15625 4.4375q-2.15625 1.65625 -5.765625 1.65625q-2.34375 0 -4.375 -0.890625q-2.03125 -0.90625 -3.140625 -2.46875q-1.09375 -1.5625 -1.09375 -3.546875l3.015625 0q0 2.0625 1.515625 3.265625q1.53125 1.1875 4.078125 1.1875q2.375 0 3.640625 -0.96875q1.265625 -0.96875 1.265625 -2.640625q0 -1.671875 -1.171875 -2.578125q-1.171875 -0.921875 -4.25 -1.8125z" fill-rule="nonzero"/><path fill="#000000" fill-opacity="0.0" d="m449.06635 499.18048l176.78741 0l0 63.370117l-176.78741 0z" fill-rule="evenodd"/><path stroke="#a72a1e" stroke-width="2.0" stroke-linejoin="round" stroke-linecap="butt" d="m449.06635 499.18048l176.78741 0l0 63.370117l-176.78741 0z" fill-rule="evenodd"/><path fill="#a72a1e" d="m499.80377 528.55426l5.453125 -8.71875l3.53125 0l-7.1875 11.28125l7.359375 11.46875l-3.5625 0l-5.59375 -8.875l-5.625 8.875l-3.546875 0l7.375 -11.46875l-7.203125 -11.28125l3.515625 0l5.484375 8.71875zm24.375 16.390625l-14.3125 0l0 -2.359375l14.3125 0l0 2.359375zm10.234375 -6.34375l6.5 -18.765625l3.28125 0l-8.4375 22.75l-2.65625 0l-8.421875 -22.75l3.265625 0l6.46875 18.765625zm25.390625 -1.953125l-9.53125 0l-2.140625 5.9375l-3.09375 0l8.6875 -22.75l2.625 0l8.703125 22.75l-3.078125 0l-2.171875 -5.9375zm-8.625 -2.46875l7.734375 0l-3.875 -10.640625l-3.859375 10.640625zm25.28125 -0.796875l-5.34375 0l0 9.203125l-3.015625 0l0 -22.75l7.53125 0q3.84375 0 5.90625 1.75q2.078125 1.75 2.078125 5.09375q0 2.125 -1.15625 3.703125q-1.140625 1.578125 -3.1875 2.359375l5.34375 9.65625l0 0.1875l-3.21875 0l-4.9375 -9.203125zm-5.34375 -2.453125l4.609375 0q2.234375 0 3.546875 -1.15625q1.328125 -1.15625 1.328125 -3.09375q0 -2.109375 -1.265625 -3.234375q-1.25 -1.125 -3.625 -1.140625l-4.59375 0l0 8.625z" fill-rule="nonzero"/><path fill="#000000" fill-opacity="0.0" d="m533.23376 617.94336l176.78741 0l0 63.370056l-176.78741 0z" fill-rule="evenodd"/><path stroke="#a72a1e" stroke-width="2.0" stroke-linejoin="round" stroke-linecap="butt" d="m533.23376 617.94336l176.78741 0l0 63.370056l-176.78741 0z" fill-rule="evenodd"/><path fill="#a72a1e" d="m624.0337 661.3484l-2.90625 0l0 -19.265625l-5.828125 2.140625l0 -2.625l8.28125 -3.109375l0.453125 0l0 22.859375z" fill-rule="nonzero"/><path fill="#000000" fill-opacity="0.0" d="m338.94897 617.94336l176.78741 0l0 63.370056l-176.78741 0z" fill-rule="evenodd"/><path stroke="#a72a1e" stroke-width="2.0" stroke-linejoin="round" stroke-linecap="butt" d="m338.94897 617.94336l176.78741 0l0 63.370056l-176.78741 0z" fill-rule="evenodd"/><path fill="#a72a1e" d="m386.53018 661.3484l-3.015625 0l-11.453125 -17.53125l0 17.53125l-3.015625 0l0 -22.75l3.015625 0l11.484375 17.609375l0 -17.609375l2.984375 0l0 22.75zm17.0625 2.359375l-14.3125 0l0 -2.359375l14.3125 0l0 2.359375zm19.4375 -9.578125q-0.421875 3.609375 -2.671875 5.578125q-2.234375 1.953125 -5.953125 1.953125q-4.03125 0 -6.46875 -2.890625q-2.421875 -2.890625 -2.421875 -7.734375l0 -2.1875q0 -3.171875 1.125 -5.578125q1.140625 -2.40625 3.21875 -3.6875q2.078125 -1.296875 4.8125 -1.296875q3.625 0 5.8125 2.03125q2.1875 2.015625 2.546875 5.59375l-3.015625 0q-0.390625 -2.71875 -1.703125 -3.9375q-1.296875 -1.21875 -3.640625 -1.21875q-2.875 0 -4.515625 2.125q-1.625 2.125 -1.625 6.046875l0 2.203125q0 3.703125 1.546875 5.890625q1.546875 2.1875 4.328125 2.1875q2.5 0 3.828125 -1.125q1.34375 -1.140625 1.78125 -3.953125l3.015625 0zm21.59375 -3.421875q0 3.34375 -1.125 5.84375q-1.125 2.484375 -3.1875 3.796875q-2.0625 1.3125 -4.8125 1.3125q-2.6875 0 -4.765625 -1.3125q-2.078125 -1.328125 -3.234375 -3.765625q-1.140625 -2.453125 -1.171875 -5.671875l0 -1.640625q0 -3.28125 1.140625 -5.796875q1.140625 -2.515625 3.21875 -3.84375q2.09375 -1.34375 4.78125 -1.34375q2.734375 0 4.8125 1.328125q2.09375 1.3125 3.21875 3.828125q1.125 2.5 1.125 5.828125l0 1.4375zm-2.984375 -1.46875q0 -4.046875 -1.625 -6.203125q-1.625 -2.171875 -4.546875 -2.171875q-2.84375 0 -4.484375 2.171875q-1.625 2.15625 -1.671875 6.0l0 1.671875q0 3.921875 1.640625 6.171875q1.65625 2.234375 4.546875 2.234375q2.90625 0 4.5 -2.109375q1.59375 -2.125 1.640625 -6.078125l0 -1.6875zm24.96875 12.109375l-3.015625 0l-11.453125 -17.53125l0 17.53125l-3.015625 0l0 -22.75l3.015625 0l11.484375 17.609375l0 -17.609375l2.984375 0l0 22.75zm12.03125 -10.140625q-3.859375 -1.109375 -5.625 -2.71875q-1.75 -1.625 -1.75 -4.0q0 -2.6875 2.140625 -4.4375q2.15625 -1.765625 5.59375 -1.765625q2.34375 0 4.171875 0.90625q1.84375 0.90625 2.84375 2.5q1.015625 1.59375 1.015625 3.484375l-3.015625 0q0 -2.0625 -1.3125 -3.234375q-1.3125 -1.1875 -3.703125 -1.1875q-2.21875 0 -3.46875 0.984375q-1.234375 0.96875 -1.234375 2.703125q0 1.390625 1.171875 2.359375q1.1875 0.953125 4.015625 1.75q2.84375 0.796875 4.4375 1.765625q1.609375 0.953125 2.375 2.234375q0.78125 1.28125 0.78125 3.015625q0 2.765625 -2.15625 4.4375q-2.15625 1.65625 -5.765625 1.65625q-2.34375 0 -4.375 -0.890625q-2.03125 -0.90625 -3.140625 -2.46875q-1.09375 -1.5625 -1.09375 -3.546875l3.015625 0q0 2.0625 1.515625 3.265625q1.53125 1.1875 4.078125 1.1875q2.375 0 3.640625 -0.96875q1.265625 -0.96875 1.265625 -2.640625q0 -1.671875 -1.171875 -2.578125q-1.171875 -0.921875 -4.25 -1.8125z" fill-rule="nonzero"/><path fill="#000000" fill-opacity="0.0" d="m491.01154 38.686386l177.03937 0l0 63.37008l-177.03937 0z" fill-rule="evenodd"/><path stroke="#a72a1e" stroke-width="2.0" stroke-linejoin="round" stroke-linecap="butt" d="m491.01154 38.686386l177.03937 0l0 63.37008l-177.03937 0z" fill-rule="evenodd"/><path fill="#a72a1e" d="m538.20306 82.09142l0 -22.75l6.421875 0q2.96875 0 5.25 1.3125q2.28125 1.3125 3.515625 3.734375q1.25 2.421875 1.265625 5.5625l0 1.453125q0 3.21875 -1.25 5.640625q-1.234375 2.421875 -3.546875 3.71875q-2.296875 1.296875 -5.359375 1.328125l-6.296875 0zm3.0 -20.28125l0 17.828125l3.15625 0q3.46875 0 5.390625 -2.15625q1.9375 -2.15625 1.9375 -6.140625l0 -1.328125q0 -3.875 -1.828125 -6.015625q-1.8125 -2.15625 -5.15625 -2.1875l-3.5 0zm30.84375 9.765625l-9.859375 0l0 8.0625l11.453125 0l0 2.453125l-14.453125 0l0 -22.75l14.296875 0l0 2.46875l-11.296875 0l0 7.3125l9.859375 0l0 2.453125zm13.671875 1.3125l-5.34375 0l0 9.203125l-3.015625 0l0 -22.75l7.53125 0q3.84375 0 5.90625 1.75q2.078125 1.75 2.078125 5.09375q0 2.125 -1.15625 3.703125q-1.140625 1.578125 -3.1875 2.359375l5.34375 9.65625l0 0.1875l-3.21875 0l-4.9375 -9.203125zm-5.34375 -2.453125l4.609375 0q2.234375 0 3.546875 -1.15625q1.328125 -1.15625 1.328125 -3.09375q0 -2.109375 -1.265625 -3.234375q-1.25 -1.125 -3.625 -1.140625l-4.59375 0l0 8.625zm19.921875 11.65625l-3.0 0l0 -22.75l3.0 0l0 22.75zm13.015625 -3.984375l6.5 -18.765625l3.28125 0l-8.4375 22.75l-2.65625 0l-8.421875 -22.75l3.265625 0l6.46875 18.765625z" fill-rule="nonzero"/><path fill="#000000" fill-opacity="0.0" d="m643.2202 227.5839l177.03937 0l0 63.370087l-177.03937 0z" fill-rule="evenodd"/><path stroke="#a72a1e" stroke-width="2.0" stroke-linejoin="round" stroke-linecap="butt" d="m643.2202 227.5839l177.03937 0l0 63.370087l-177.03937 0z" fill-rule="evenodd"/><path fill="#a72a1e" d="m694.0836 256.95767l5.453125 -8.718735l3.53125 0l-7.1875 11.281235l7.359375 11.46875l-3.5625 0l-5.59375 -8.875l-5.625 8.875l-3.546875 0l7.375 -11.46875l-7.203125 -11.281235l3.515625 0l5.484375 8.718735zm24.375 16.390625l-14.3125 0l0 -2.359375l14.3125 0l0 2.359375zm10.234375 -6.34375l6.5 -18.76561l3.28125 0l-8.4375 22.749985l-2.65625 0l-8.421875 -22.749985l3.265625 0l6.46875 18.76561zm25.390625 -1.953125l-9.53125 0l-2.140625 5.9375l-3.09375 0l8.6875 -22.749985l2.625 0l8.703125 22.749985l-3.078125 0l-2.171875 -5.9375zm-8.625 -2.46875l7.734375 0l-3.875 -10.64061l-3.859375 10.64061zm25.28125 -0.796875l-5.34375 0l0 9.203125l-3.015625 0l0 -22.749985l7.53125 0q3.84375 0 5.90625 1.75q2.078125 1.75 2.078125 5.09375q0 2.1249847 -1.15625 3.7031097q-1.140625 1.578125 -3.1875 2.359375l5.34375 9.65625l0 0.1875l-3.21875 0l-4.9375 -9.203125zm-5.34375 -2.453125l4.609375 0q2.234375 0 3.546875 -1.15625q1.328125 -1.15625 1.328125 -3.0937347q0 -2.109375 -1.265625 -3.234375q-1.25 -1.125 -3.625 -1.140625l-4.59375 0l0 8.624985z" fill-rule="nonzero"/><path fill="#000000" fill-opacity="0.0" d="m579.5312 102.056465l0 62.753395l-147.93698 0l0 62.758423" fill-rule="evenodd"/><path stroke="#000000" stroke-width="1.0" stroke-linejoin="round" stroke-linecap="butt" d="m579.5312 102.056465l0 62.753395l-147.93698 0l0 62.758423" fill-rule="evenodd"/><path fill="#000000" fill-opacity="0.0" d="m579.5312 102.056465l0 62.753395l152.22052 0l0 62.758423" fill-rule="evenodd"/><path stroke="#000000" stroke-width="1.0" stroke-linejoin="round" stroke-linecap="butt" d="m579.5312 102.056465l0 62.753395l152.22052 0l0 62.758423" fill-rule="evenodd"/></g></svg>