<svg version="1.1" viewBox="0.0 0.0 960.0 720.0" fill="none" stroke="none" stroke-linecap="square" stroke-miterlimit="10" xmlns:xlink="http://www.w3.org/1999/xlink" xmlns="http://www.w3.org/2000/svg"><clipPath id="p.0"><path d="m0 0l960.0 0l0 720.0l-960.0 0l0 -720.0z" clip-rule="nonzero"/></clipPath><g clip-path="url(#p.0)"><path fill="#000000" fill-opacity="0.0" d="m0 0l960.0 0l0 720.0l-960.0 0z" fill-rule="evenodd"/><path fill="#000000" fill-opacity="0.0" d="m140.81627 94.20473l0 0c0 -8.793076 7.128189 -15.921265 15.921265 -15.921265l0 0c4.22258 0 8.272217 1.677414 11.258026 4.663231c2.9858246 2.985817 4.6632385 7.035454 4.6632385 11.258034l0 0c0 8.793068 -7.128189 15.921257 -15.921265 15.921257l0 0c-8.793076 0 -15.921265 -7.128189 -15.921265 -15.921257z" fill-rule="evenodd"/><path stroke="#000000" stroke-width="1.0" stroke-linejoin="round" stroke-linecap="butt" d="m140.81627 94.20473l0 0c0 -8.793076 7.128189 -15.921265 15.921265 -15.921265l0 0c4.22258 0 8.272217 1.677414 11.258026 4.663231c2.9858246 2.985817 4.6632385 7.035454 4.6632385 11.258034l0 0c0 8.793068 -7.128189 15.921257 -15.921265 15.921257l0 0c-8.793076 0 -15.921265 -7.128189 -15.921265 -15.921257z" fill-rule="evenodd"/><path fill="#000000" d="m163.87013 99.5466l0 1.578125l-8.828125 0q-0.015625 -0.59375 0.1875 -1.140625q0.34375 -0.90625 1.078125 -1.78125q0.75 -0.875 2.15625 -2.015625q2.171875 -1.78125 2.9375 -2.828125q0.765625 -1.046875 0.765625 -1.96875q0 -0.984375 -0.703125 -1.640625q-0.6875 -0.671875 -1.8125 -0.671875q-1.1875 0 -1.90625 0.71875q-0.703125 0.703125 -0.703125 1.953125l-1.6875 -0.171875q0.171875 -1.890625 1.296875 -2.875q1.140625 -0.984375 3.03125 -0.984375q1.921875 0 3.046875 1.0625q1.125 1.0625 1.125 2.640625q0 0.796875 -0.328125 1.578125q-0.328125 0.78125 -1.09375 1.640625q-0.75 0.84375 -2.53125 2.34375q-1.46875 1.234375 -1.890625 1.6875q-0.421875 0.4375 -0.6875 0.875l6.546875 0z" fill-rule="nonzero"/><path fill="#000000" fill-opacity="0.0" d="m140.81627 625.7953l0 0c0 -8.793091 7.128189 -15.921265 15.921265 -15.921265l0 0c4.22258 0 8.272217 1.6774292 11.258026 4.663208c2.9858246 2.9858398 4.6632385 7.0354614 4.6632385 11.258057l0 0c0 8.79303 -7.128189 15.921265 -15.921265 15.921265l0 0c-8.793076 0 -15.921265 -7.128235 -15.921265 -15.921265z" fill-rule="evenodd"/><path stroke="#000000" stroke-width="1.0" stroke-linejoin="round" stroke-linecap="butt" d="m140.81627 625.7953l0 0c0 -8.793091 7.128189 -15.921265 15.921265 -15.921265l0 0c4.22258 0 8.272217 1.6774292 11.258026 4.663208c2.9858246 2.9858398 4.6632385 7.0354614 4.6632385 11.258057l0 0c0 8.79303 -7.128189 15.921265 -15.921265 15.921265l0 0c-8.793076 0 -15.921265 -7.128235 -15.921265 -15.921265z" fill-rule="evenodd"/><path fill="#000000" d="m161.43263 632.7153l-1.640625 0l0 -10.453125q-0.59375 0.5625 -1.5625 1.140625q-0.953125 0.5625 -1.71875 0.84375l0 -1.59375q1.375 -0.640625 2.40625 -1.5625q1.03125 -0.921875 1.453125 -1.78125l1.0625 0l0 13.40625z" fill-rule="nonzero"/><path fill="#000000" fill-opacity="0.0" d="m156.73753 609.874l0 -499.74805" fill-rule="evenodd"/><path stroke="#000000" stroke-width="1.0" stroke-linejoin="round" stroke-linecap="butt" d="m156.73753 609.874l0 -493.74805" fill-rule="evenodd"/><path fill="#000000" stroke="#000000" stroke-width="1.0" stroke-linecap="butt" d="m158.38927 116.125984l-1.6517334 -4.538101l-1.6517334 4.538101z" fill-rule="evenodd"/><path fill="#000000" fill-opacity="0.0" d="m400.4908 94.20473l0 0c0 -8.793076 7.1282043 -15.921265 15.921265 -15.921265l0 0c4.2225647 0 8.272217 1.677414 11.258026 4.663231c2.9858093 2.985817 4.6632385 7.035454 4.6632385 11.258034l0 0c0 8.793068 -7.1282043 15.921257 -15.921265 15.921257l0 0c-8.79306 0 -15.921265 -7.128189 -15.921265 -15.921257z" fill-rule="evenodd"/><path stroke="#000000" stroke-width="1.0" stroke-linejoin="round" stroke-linecap="butt" d="m400.4908 94.20473l0 0c0 -8.793076 7.1282043 -15.921265 15.921265 -15.921265l0 0c4.2225647 0 8.272217 1.677414 11.258026 4.663231c2.9858093 2.985817 4.6632385 7.035454 4.6632385 11.258034l0 0c0 8.793068 -7.1282043 15.921257 -15.921265 15.921257l0 0c-8.79306 0 -15.921265 -7.128189 -15.921265 -15.921257z" fill-rule="evenodd"/><path fill="#000000" d="m414.9353 97.593475l1.640625 -0.21875q0.28125 1.40625 0.953125 2.015625q0.6875 0.609375 1.65625 0.609375q1.15625 0 1.953125 -0.796875q0.796875 -0.796875 0.796875 -1.984375q0 -1.125 -0.734375 -1.859375q-0.734375 -0.734375 -1.875 -0.734375q-0.46875 0 -1.15625 0.171875l0.1875 -1.4375q0.15625 0.015625 0.265625 0.015625q1.046875 0 1.875 -0.546875q0.84375 -0.546875 0.84375 -1.671875q0 -0.90625 -0.609375 -1.5q-0.609375 -0.59375 -1.578125 -0.59375q-0.953125 0 -1.59375 0.609375q-0.640625 0.59375 -0.8125 1.796875l-1.640625 -0.296875q0.296875 -1.640625 1.359375 -2.546875q1.0625 -0.90625 2.65625 -0.90625q1.09375 0 2.0 0.46875q0.921875 0.46875 1.40625 1.28125q0.5 0.8125 0.5 1.71875q0 0.859375 -0.46875 1.578125q-0.46875 0.703125 -1.375 1.125q1.1875 0.28125 1.84375 1.140625q0.65625 0.859375 0.65625 2.15625q0 1.734375 -1.28125 2.953125q-1.265625 1.21875 -3.21875 1.21875q-1.765625 0 -2.921875 -1.046875q-1.15625 -1.046875 -1.328125 -2.71875z" fill-rule="nonzero"/><path fill="#000000" fill-opacity="0.0" d="m172.6483 360.0l0 0c0 -8.79306 7.128189 -15.921265 15.921249 -15.921265l0 0c4.22258 0 8.272217 1.6774292 11.258041 4.6632385c2.9858093 2.9858093 4.6632233 7.035431 4.6632233 11.258026l0 0c0 8.79306 -7.128189 15.921265 -15.921265 15.921265l0 0c-8.79306 0 -15.921249 -7.1282043 -15.921249 -15.921265z" fill-rule="evenodd"/><path stroke="#000000" stroke-width="1.0" stroke-linejoin="round" stroke-linecap="butt" d="m172.6483 360.0l0 0c0 -8.79306 7.128189 -15.921265 15.921249 -15.921265l0 0c4.22258 0 8.272217 1.6774292 11.258041 4.6632385c2.9858093 2.9858093 4.6632233 7.035431 4.6632233 11.258026l0 0c0 8.79306 -7.128189 15.921265 -15.921265 15.921265l0 0c-8.79306 0 -15.921249 -7.1282043 -15.921249 -15.921265z" fill-rule="evenodd"/><path fill="#000000" d="m192.34277 366.91998l0 -3.203125l-5.796875 0l0 -1.5l6.09375 -8.65625l1.34375 0l0 8.65625l1.796875 0l0 1.5l-1.796875 0l0 3.203125l-1.640625 0zm0 -4.703125l0 -6.015625l-4.1875 6.015625l4.1875 0z" fill-rule="nonzero"/><path fill="#000000" fill-opacity="0.0" d="m400.4908 625.7953l0 0c0 -8.793091 7.1282043 -15.921265 15.921265 -15.921265l0 0c4.2225647 0 8.272217 1.6774292 11.258026 4.663208c2.9858093 2.9858398 4.6632385 7.0354614 4.6632385 11.258057l0 0c0 8.79303 -7.1282043 15.921265 -15.921265 15.921265l0 0c-8.79306 0 -15.921265 -7.128235 -15.921265 -15.921265z" fill-rule="evenodd"/><path stroke="#000000" stroke-width="1.0" stroke-linejoin="round" stroke-linecap="butt" d="m400.4908 625.7953l0 0c0 -8.793091 7.1282043 -15.921265 15.921265 -15.921265l0 0c4.2225647 0 8.272217 1.6774292 11.258026 4.663208c2.9858093 2.9858398 4.6632385 7.0354614 4.6632385 11.258057l0 0c0 8.79303 -7.1282043 15.921265 -15.921265 15.921265l0 0c-8.79306 0 -15.921265 -7.128235 -15.921265 -15.921265z" fill-rule="evenodd"/><path fill="#000000" d="m414.9353 629.2153l1.71875 -0.140625q0.1875 1.25 0.875 1.890625q0.703125 0.625 1.6875 0.625q1.1875 0 2.0 -0.890625q0.828125 -0.890625 0.828125 -2.359375q0 -1.40625 -0.796875 -2.21875q-0.78125 -0.8125 -2.0625 -0.8125q-0.78125 0 -1.421875 0.359375q-0.640625 0.359375 -1.0 0.9375l-1.546875 -0.203125l1.296875 -6.859375l6.640625 0l0 1.5625l-5.328125 0l-0.71875 3.59375q1.203125 -0.84375 2.515625 -0.84375q1.75 0 2.953125 1.21875q1.203125 1.203125 1.203125 3.109375q0 1.8125 -1.046875 3.140625q-1.296875 1.625 -3.515625 1.625q-1.8125 0 -2.96875 -1.015625q-1.15625 -1.03125 -1.3125 -2.71875z" fill-rule="nonzero"/><path fill="#000000" fill-opacity="0.0" d="m172.6588 94.20473l227.84251 0" fill-rule="evenodd"/><path stroke="#000000" stroke-width="1.0" stroke-linejoin="round" stroke-linecap="butt" d="m172.6588 94.20473l221.84251 0" fill-rule="evenodd"/><path fill="#000000" stroke="#000000" stroke-width="1.0" stroke-linecap="butt" d="m394.5013 95.85646l4.538086 -1.6517334l-4.538086 -1.6517334z" fill-rule="evenodd"/><path fill="#000000" fill-opacity="0.0" d="m416.41208 110.125984l-227.84253 233.95276" fill-rule="evenodd"/><path stroke="#000000" stroke-width="1.0" stroke-linejoin="round" stroke-linecap="butt" d="m416.41208 110.125984l-223.65637 229.65436" fill-rule="evenodd"/><path fill="#000000" stroke="#000000" stroke-width="1.0" stroke-linecap="butt" d="m191.57239 338.62793l-1.9828796 4.4035034l4.3494873 -2.0986938z" fill-rule="evenodd"/><path fill="#000000" fill-opacity="0.0" d="m199.82759 371.25803l205.32283 243.2756" fill-rule="evenodd"/><path stroke="#000000" stroke-width="1.0" stroke-linejoin="round" stroke-linecap="butt" d="m199.82759 371.25803l201.45296 238.6904" fill-rule="evenodd"/><path fill="#000000" stroke="#000000" stroke-width="1.0" stroke-linecap="butt" d="m400.0183 611.01373l4.189209 2.40271l-1.6647034 -4.533325z" fill-rule="evenodd"/><path fill="#000000" fill-opacity="0.0" d="m285.38846 341.85828l225.76376 0l0 -18.141754l36.283447 36.283478l-36.283447 36.283478l0 -18.141754l-225.76376 0z" fill-rule="evenodd"/><path stroke="#000000" stroke-width="1.0" stroke-linejoin="round" stroke-linecap="butt" d="m285.38846 341.85828l225.76376 0l0 -18.141754l36.283447 36.283478l-36.283447 36.283478l0 -18.141754l-225.76376 0z" fill-rule="evenodd"/><path fill="#000000" fill-opacity="0.0" d="m767.7549 74.449455c-20.788635 -13.854115 -59.08734 -13.382702 -74.69556 6.1233597c-18.362427 22.948135 -22.938538 71.433 1.225708 88.162735c13.958313 9.663773 33.22766 8.572174 50.204712 8.572174c13.370178 0 32.30487 2.892624 39.183777 -8.572174c16.097229 -26.82875 32.068848 -60.256386 24.48816 -90.61156c-3.5820923 -14.343685 -39.4032 -18.922157 -44.08136 -4.8976364" fill-rule="evenodd"/><path stroke="#000000" stroke-width="1.0" stroke-linejoin="round" stroke-linecap="butt" d="m767.7549 74.449455c-20.788635 -13.854115 -59.08734 -13.382702 -74.69556 6.1233597c-18.362427 22.948135 -22.938538 71.433 1.225708 88.162735c13.958313 9.663773 33.22766 8.572174 50.204712 8.572174c13.370178 0 32.30487 2.892624 39.183777 -8.572174c16.097229 -26.82875 32.068848 -60.256386 24.48816 -90.61156c-3.5820923 -14.343685 -39.4032 -18.922157 -44.08136 -4.8976364" fill-rule="evenodd"/><path fill="#000000" fill-opacity="0.0" d="m722.4488 182.20473c0 48.169647 -2.4487915 96.31853 -2.4487915 144.48817c0 29.388458 5.1087646 59.224365 0 88.165375c-3.933899 22.2854 -8.572205 44.716522 -8.572205 67.346436" fill-rule="evenodd"/><path stroke="#000000" stroke-width="1.0" stroke-linejoin="round" stroke-linecap="butt" d="m722.4488 182.20473c0 48.169647 -2.4487915 96.31853 -2.4487915 144.48817c0 29.388458 5.1087646 59.224365 0 88.165375c-3.933899 22.2854 -8.572205 44.716522 -8.572205 67.346436" fill-rule="evenodd"/><path fill="#000000" fill-opacity="0.0" d="m723.67456 185.87665c-11.657043 31.07843 -20.11499 63.310165 -28.165344 95.51181c-5.102783 20.41092 -19.590576 38.960907 -19.590576 60.0" fill-rule="evenodd"/><path stroke="#000000" stroke-width="1.0" stroke-linejoin="round" stroke-linecap="butt" d="m723.67456 185.87665c-11.657043 31.07843 -20.11499 63.310165 -28.165344 95.51181c-5.102783 20.41092 -19.590576 38.960907 -19.590576 60.0" fill-rule="evenodd"/><path fill="#000000" fill-opacity="0.0" d="m722.4488 188.32545c10.285339 41.119293 17.586548 83.49107 34.286133 122.44884c6.319092 14.741608 12.24408 30.493896 12.24408 46.532806" fill-rule="evenodd"/><path stroke="#000000" stroke-width="1.0" stroke-linejoin="round" stroke-linecap="butt" d="m722.4488 188.32545c10.285339 41.119293 17.586548 83.49107 34.286133 122.44884c6.319092 14.741608 12.24408 30.493896 12.24408 46.532806" fill-rule="evenodd"/><path fill="#000000" fill-opacity="0.0" d="m710.2047 482.2047c-13.423035 33.557556 -34.954285 63.424316 -48.979004 96.734924c-4.3258667 10.274475 -13.469788 19.463562 -13.469788 30.611572" fill-rule="evenodd"/><path stroke="#000000" stroke-width="1.0" stroke-linejoin="round" stroke-linecap="butt" d="m710.2047 482.2047c-13.423035 33.557556 -34.954285 63.424316 -48.979004 96.734924c-4.3258667 10.274475 -13.469788 19.463562 -13.469788 30.611572" fill-rule="evenodd"/><path fill="#000000" fill-opacity="0.0" d="m713.87665 484.65353c15.967041 47.832794 73.46979 81.81668 73.46979 132.24411" fill-rule="evenodd"/><path stroke="#000000" stroke-width="1.0" stroke-linejoin="round" stroke-linecap="butt" d="m713.87665 484.65353c15.967041 47.832794 73.46979 81.81668 73.46979 132.24411" fill-rule="evenodd"/></g></svg>