<svg version="1.1" viewBox="0.0 0.0 960.0 720.0" fill="none" stroke="none" stroke-linecap="square" stroke-miterlimit="10" xmlns:xlink="http://www.w3.org/1999/xlink" xmlns="http://www.w3.org/2000/svg"><clipPath id="p.0"><path d="m0 0l960.0 0l0 720.0l-960.0 0l0 -720.0z" clip-rule="nonzero"/></clipPath><g clip-path="url(#p.0)"><path fill="#000000" fill-opacity="0.0" d="m0 0l960.0 0l0 720.0l-960.0 0z" fill-rule="evenodd"/><path fill="#000000" fill-opacity="0.0" d="m149.92906 225.39241l0 0c0 -107.52592 87.16699 -194.6929 194.69292 -194.6929l0 0c51.635773 0 101.15668 20.512232 137.66867 57.02424c36.512024 36.512 57.02423 86.03291 57.02423 137.66867l0 0c0 107.525925 -87.16696 194.69292 -194.6929 194.69292l0 0c-107.525925 0 -194.69292 -87.16699 -194.69292 -194.69292z" fill-rule="evenodd"/><path stroke="#000000" stroke-width="24.0" stroke-linejoin="round" stroke-linecap="butt" d="m149.92906 225.39241l0 0c0 -107.52592 87.16699 -194.6929 194.69292 -194.6929l0 0c51.635773 0 101.15668 20.512232 137.66867 57.02424c36.512024 36.512 57.02423 86.03291 57.02423 137.66867l0 0c0 107.525925 -87.16696 194.69292 -194.6929 194.69292l0 0c-107.525925 0 -194.69292 -87.16699 -194.69292 -194.69292z" fill-rule="evenodd"/><path fill="#000000" fill-opacity="0.0" d="m482.29065 363.0611l302.17322 302.17322" fill-rule="evenodd"/><path stroke="#000000" stroke-width="24.0" stroke-linejoin="round" stroke-linecap="butt" d="m482.29065 363.0611l302.17322 302.17322" fill-rule="evenodd"/><path fill="#000000" d="m580.2589 459.4892l0 0l0 0c6.5448 -6.5448 15.421448 -10.221619 24.677185 -10.221619c9.255737 0 18.132324 3.6768188 24.677124 10.221619l180.45673 180.45667c1.8310547E-4 2.4414062E-4 1.8310547E-4 6.1035156E-4 0 8.544922E-4l-49.35437 49.353516l0 0c-1.8310547E-4 2.4414062E-4 -5.493164E-4 2.4414062E-4 -7.9345703E-4 0l-180.45587 -180.4567l0 0c-13.628845 -13.628845 -13.628845 -35.725525 0 -49.35434z" fill-rule="evenodd"/><path stroke="#000000" stroke-width="1.0" stroke-linejoin="round" stroke-linecap="butt" d="m580.2589 459.4892l0 0l0 0c6.5448 -6.5448 15.421448 -10.221619 24.677185 -10.221619c9.255737 0 18.132324 3.6768188 24.677124 10.221619l180.45673 180.45667c1.8310547E-4 2.4414062E-4 1.8310547E-4 6.1035156E-4 0 8.544922E-4l-49.35437 49.353516l0 0c-1.8310547E-4 2.4414062E-4 -5.493164E-4 2.4414062E-4 -7.9345703E-4 0l-180.45587 -180.4567l0 0c-13.628845 -13.628845 -13.628845 -35.725525 0 -49.35434z" fill-rule="evenodd"/></g></svg>